<svg width="512" height="512" xmlns="http://www.w3.org/2000/svg">
 <!-- Created with UXWing SVG Editor - https://uxwing.com/svg-icon-editor/ -->

 <g>
  <title>background</title>
  <rect fill="none" id="canvas_background" height="514" width="514" y="-1" x="-1"/>
  <g display="none" overflow="visible" y="0" x="0" height="100%" width="100%" id="canvasGrid">
   <rect fill="url(#gridpattern)" stroke-width="0" y="0" x="0" height="100%" width="100%"/>
  </g>
 </g>
 <g>
  <title>Layer 1</title>
  <style transform="matrix(1.9290121985070527,0,0,1.9290121985070527,0,0) " type="text/css">.st0{fill-rule:evenodd;clip-rule:evenodd;}</style>
  <g stroke="null" id="svg_12">
   <g stroke="null" transform="matrix(1.1253473411227535,0,0,1.184297289718492,125.65131295692412,94.3314228616472) " id="svg_10">
    <title stroke="null" transform="translate(0.014982173219323158,0) translate(71.49540710449219,0) translate(0,71.2704086303711) ">background</title>
    <rect stroke="null" x="70.510389" y="70.270409" width="124.43" height="124.88" id="svg_8" fill="#cccccc"/>
   </g>
   <g stroke="null" transform="matrix(1.1253473411227535,0,0,1.184297289718492,125.65131295692412,94.3314228616472) " id="svg_11">
    <title stroke="null" transform="translate(0.014982173219323158,0) translate(71.49540710449219,0) translate(0,71.2704086303711) ">Layer 1</title>
    <g stroke="null" id="svg_6">
     <path stroke="null" class="st0" d="m118.570219,114.692669l41.47514,0c2.71166,0 2.56496,1.06294 2.32936,3.77407l-1.54254,19.03388c-0.26227,3.03388 -0.04001,2.298 -3.36068,2.75847l-30.50401,3.75685l1.61366,4.53147c13.23382,0 19.63068,0 32.8556,0c0.44454,1.60946 1.0491,4.23022 1.49364,6.02474l-5.45889,0l-0.52456,-1.83325c-11.02447,0 -15.22533,0 -26.25424,0c-6.02346,-0.09897 -5.41889,1.48037 -6.86363,-3.5589l-10.34878,-36.41955l-4.9699,0l0,-3.49005l8.71733,0c0.40453,1.46746 0.96464,3.9376 1.3425,5.42227l0,0zm13.80726,39.29852c2.32492,0 4.2142,1.82894 4.2142,4.07961c0,2.25498 -1.88483,4.07961 -4.2142,4.07961c-2.32936,0 -4.21419,-1.82463 -4.21419,-4.07961c0,-2.25067 1.88483,-4.07961 4.21419,-4.07961l0,0zm17.38133,0c2.32492,0 4.2142,1.82894 4.2142,4.07961c0,2.25498 -1.88928,4.07961 -4.2142,4.07961c-2.32936,0 -4.21419,-1.82463 -4.21419,-4.07961c0,-2.25067 1.88483,-4.07961 4.21419,-4.07961l0,0zm-27.55674,-26.1861l6.71249,0l-2.43606,-9.85906c-2.40049,0 -4.76541,-0.0043 -7.08144,-0.0043l0.81794,2.95212l0.02667,-0.0043l1.9604,6.91554l0,0l0,0zm7.78382,-9.85476l2.43605,9.85476l6.46354,0l-2.44494,-9.84615l-6.45465,-0.00861l0,0l0,0zm9.97092,0.01291l2.44494,9.84185l6.18349,0l-2.43605,-9.83324l-6.19238,-0.00861l0,0l0,0zm9.70865,0.01291l2.43605,9.83324l6.18793,0l0.68459,-7.90102c0.19115,-2.20333 0.59123,-1.92361 -1.61367,-1.92361c-2.51607,-0.0043 -5.08993,-0.00861 -7.6949,-0.00861l0,0l0,0zm8.40616,12.33351l-5.3522,0l1.7648,7.1264l0.43565,-0.05594c2.69832,-0.37439 2.52051,0.22378 2.73389,-2.24206l0.41786,-4.8284l0,0zm-6.98809,7.57826l-1.87594,-7.57826l-6.17904,0l2.07598,8.36578l5.979,-0.78752l0,0l0,0zm-9.38414,1.23507l-2.19156,-8.81764l-6.46799,0l2.38716,9.64389l6.27239,-0.82625l0,0l0,0zm-9.67309,1.27811l-2.49384,-10.09144l-6.61913,0l3.09397,10.88756l6.019,-0.79612l0,0z" id="svg_7" fill="#BBBBBB"/>
    </g>
   </g>
  </g>
 </g>
</svg>